<?xml version="1.0" standalone="no"?>
<!DOCTYPE svg PUBLIC "-//W3C//DTD SVG 20010904//EN"
 "http://www.w3.org/TR/2001/REC-SVG-20010904/DTD/svg10.dtd">
<svg version="1.0" xmlns="http://www.w3.org/2000/svg"
 width="512.000000pt" height="512.000000pt" viewBox="0 0 512.000000 512.000000"
 preserveAspectRatio="xMidYMid meet">

<g transform="translate(0.000000,512.000000) scale(0.100000,-0.100000)"
fill="#000000" stroke="none">
<path d="M2514 5011 c-45 -21 -85 -67 -103 -120 -8 -25 -11 -532 -11 -1905 0
-1788 1 -1873 19 -1911 26 -59 80 -101 143 -114 38 -8 398 -11 1228 -9 1123 3
1177 4 1212 22 49 24 94 76 107 123 16 56 15 3748 0 3794 -18 53 -58 99 -103
120 -39 18 -90 19 -1246 19 -1156 0 -1207 -1 -1246 -19z m2467 -78 c63 -38 59
101 59 -1937 0 -2021 3 -1901 -56 -1941 -28 -20 -57 -20 -1205 -23 -928 -2
-1185 0 -1215 10 -24 8 -47 26 -61 47 l-23 34 0 1869 c0 1334 3 1876 11 1891
6 12 23 32 37 44 l27 23 1198 0 c1112 0 1201 -1 1228 -17z"/>
<path d="M2688 4737 l-48 -51 0 -127 c0 -70 3 -134 6 -143 8 -21 60 -21 68 0
3 9 6 24 6 35 0 16 7 19 40 19 33 0 40 -3 40 -19 0 -11 3 -26 6 -35 8 -21 60
-21 68 0 3 9 6 73 6 143 l0 127 -50 52 c-63 66 -81 66 -142 -1z m94 -64 c13
-12 18 -30 18 -70 l0 -53 -40 0 -40 0 0 52 c0 34 6 58 17 70 20 22 22 22 45 1z"/>
<path d="M2662 4227 c-91 -91 -108 -127 -92 -188 17 -63 95 -111 150 -94 19 6
20 5 8 -14 -8 -13 -23 -21 -39 -21 -32 0 -53 -22 -44 -48 7 -25 33 -32 115
-32 82 0 108 7 115 32 9 26 -12 48 -44 48 -14 0 -31 8 -37 18 -10 15 -7 17 32
17 52 0 92 27 118 79 31 63 17 97 -82 198 -47 48 -93 88 -102 88 -8 0 -52 -37
-98 -83z"/>
<path d="M3499 3413 c-260 -263 -278 -286 -294 -394 -8 -51 8 -147 33 -194 39
-76 123 -148 204 -174 83 -27 222 -8 291 41 27 19 27 19 55 0 68 -48 202 -68
289 -42 59 18 143 80 180 134 42 61 57 114 57 201 0 58 -5 82 -32 140 -30 64
-53 90 -270 302 -130 128 -244 233 -252 233 -9 0 -126 -111 -261 -247z m118
-241 c-140 -141 -147 -151 -147 -188 0 -22 7 -50 16 -62 9 -13 14 -25 12 -28
-8 -7 -46 41 -48 61 -6 59 1 69 152 222 83 84 154 150 157 148 2 -3 -61 -72
-142 -153z"/>
<path d="M3732 2618 c-7 -7 -12 -40 -12 -80 l0 -68 -129 0 c-100 0 -131 -3
-141 -15 -16 -19 -4 -52 23 -59 29 -8 545 -8 574 0 27 7 39 40 23 59 -10 12
-41 15 -141 15 l-129 0 0 68 c0 69 -10 92 -40 92 -9 0 -21 -5 -28 -12z"/>
<path d="M4688 2097 l-48 -51 0 -127 c0 -70 3 -134 6 -143 8 -21 60 -21 68 0
3 9 6 24 6 35 0 16 7 19 40 19 33 0 40 -3 40 -19 0 -11 3 -26 6 -35 8 -21 60
-21 68 0 3 9 6 73 6 143 l0 128 -51 52 c-31 31 -60 51 -73 50 -12 0 -42 -23
-68 -52z m94 -64 c13 -12 18 -30 18 -70 l0 -53 -40 0 -40 0 0 52 c0 34 6 58
17 70 20 22 22 22 45 1z"/>
<path d="M4658 1582 c-99 -101 -113 -135 -82 -198 26 -52 66 -79 118 -79 39 0
42 -2 32 -17 -6 -10 -23 -18 -37 -18 -51 0 -65 -61 -16 -74 29 -7 145 -7 174
0 49 13 35 74 -16 74 -16 0 -31 8 -39 21 -12 19 -11 20 8 14 84 -27 176 75
150 165 -11 39 -165 200 -190 200 -9 0 -55 -40 -102 -88z"/>
<path d="M1924 4691 c-198 -54 -378 -107 -399 -116 -42 -21 -89 -86 -99 -139
-4 -20 0 -66 10 -108 11 -51 829 -3113 940 -3523 9 -32 -65 94 -891 1525 -515
893 -789 1377 -792 1400 -9 70 14 88 363 290 177 102 329 191 338 199 22 19
20 48 -4 61 -18 9 -67 -16 -353 -180 -209 -121 -346 -205 -369 -229 -65 -68
-72 -145 -21 -245 20 -40 1725 -3000 1806 -3136 21 -34 19 -33 -38 17 -33 28
-569 562 -1192 1185 -1219 1220 -1161 1158 -1133 1233 6 17 131 150 286 305
150 152 274 281 274 287 0 26 -13 43 -34 43 -30 0 -579 -551 -601 -602 -20
-50 -19 -94 6 -148 15 -35 307 -332 1337 -1363 896 -896 1330 -1324 1358
-1337 48 -24 111 -26 162 -5 43 18 572 541 572 565 0 20 -20 40 -40 40 -8 0
-130 -115 -270 -256 -140 -140 -267 -262 -282 -270 -70 -37 -118 -13 -253 126
-67 68 -74 79 -45 64 46 -23 134 -23 180 1 91 47 607 349 624 364 15 15 16 22
7 40 -7 11 -20 21 -31 21 -10 0 -148 -75 -307 -167 -353 -204 -364 -209 -413
-194 -46 14 -65 35 -125 141 -26 47 -55 96 -64 110 l-16 25 30 -21 c46 -31 82
-44 123 -44 55 0 724 179 746 200 15 14 16 21 7 39 -7 11 -20 21 -31 21 -10 0
-171 -41 -357 -91 -361 -97 -393 -101 -438 -59 -31 29 -37 45 -89 245 -24 94
-238 894 -476 1779 -327 1221 -430 1617 -426 1642 14 70 38 80 441 188 204 54
378 103 388 108 12 6 17 18 15 36 -2 22 -8 27 -33 29 -16 1 -192 -43 -391 -96z"/>
<path d="M1849 4414 c-7 -8 -20 -49 -29 -90 -8 -41 -20 -75 -25 -75 -5 0 -16
24 -23 53 -8 29 -18 59 -24 65 -16 20 -56 16 -63 -6 -6 -19 67 -307 86 -343
12 -22 42 -23 60 -2 11 13 10 27 -5 81 -18 68 -14 91 9 59 43 -58 109 -117
129 -114 38 5 33 51 -11 100 -81 91 -76 78 -58 152 20 88 19 113 -4 126 -25
13 -26 13 -42 -6z"/>
<path d="M1943 3940 c-18 -11 -40 -17 -48 -14 -9 4 -36 -1 -60 -10 -78 -30
-105 -107 -66 -184 15 -29 40 -49 120 -95 63 -37 107 -56 118 -53 26 9 124
183 130 232 13 106 -103 180 -194 124z"/>
<path d="M965 3782 c-52 -31 -81 -55 -82 -67 -3 -25 168 -319 188 -323 21 -4
181 90 186 109 3 10 11 15 17 13 7 -3 23 3 36 14 34 27 14 55 -52 74 -52 14
-53 15 -113 119 -41 70 -68 105 -81 106 -10 2 -55 -19 -99 -45z m105 -92 c20
-39 20 -40 1 -40 -11 0 -27 -10 -35 -21 -14 -21 -15 -20 -35 19 -12 23 -21 43
-21 46 0 6 51 35 62 36 4 0 17 -18 28 -40z m79 -144 c6 -4 11 -10 11 -14 0 -7
-53 -42 -63 -42 -3 0 -16 20 -30 44 l-24 43 48 -12 c26 -7 52 -16 58 -19z"/>
<path d="M1202 3358 c-13 -16 -54 -272 -46 -291 6 -15 27 -26 168 -82 98 -38
118 -42 134 -22 15 18 52 279 42 296 -8 16 -241 111 -270 111 -10 0 -22 -6
-28 -12z"/>
<path d="M409 3043 c-70 -66 -83 -86 -74 -113 8 -25 42 -26 74 -3 23 16 25 15
87 -49 46 -47 64 -73 64 -92 0 -24 -3 -26 -44 -26 -27 0 -51 -6 -60 -16 -19
-18 -19 -20 -6 -45 9 -16 22 -19 88 -19 47 0 83 5 90 12 7 7 12 41 12 82 l0
71 -76 76 -75 76 18 31 c14 24 15 36 7 49 -20 33 -43 25 -105 -34z"/>
<path d="M768 2692 c-36 -4 -84 -53 -90 -90 -6 -43 9 -88 38 -111 24 -19 25
-21 8 -46 -20 -30 -22 -91 -5 -124 15 -28 69 -61 99 -61 43 0 90 30 110 71
l19 38 22 -23 21 -22 -26 -25 c-38 -35 -47 -56 -34 -79 20 -37 50 -23 146 72
93 91 109 119 82 146 -19 19 -35 14 -76 -23 l-39 -35 -21 23 -22 23 38 17 c78
34 95 129 33 190 -24 25 -38 30 -75 30 -24 0 -55 -7 -69 -15 -22 -16 -25 -15
-50 12 -27 28 -59 38 -109 32z m126 -208 c3 -8 2 -12 -4 -9 -6 3 -10 10 -10
16 0 14 7 11 14 -7z m46 -46 c0 -6 -6 -5 -15 2 -8 7 -15 14 -15 16 0 2 7 1 15
-2 8 -4 15 -11 15 -16z"/>
</g>
</svg>
